<?xml version="1.0" ?><svg viewBox="0 0 512 512" xmlns="http://www.w3.org/2000/svg"><g id="Download_from_cloud"><path d="M156.2931,90.2386a94.94,94.94,0,0,1,172.2129,0,41.75,41.75,0,0,0,37.7491,24.0625h.372a85.09,85.09,0,0,1,85.0879,85.7363,83.24,83.24,0,0,1-7.001,32.9492A6.5,6.5,0,1,0,456.6223,238.2a96.1734,96.1734,0,0,0,8.0927-38.0654,98.0908,98.0908,0,0,0-98.0879-98.833h-.3545a28.72,28.72,0,0,1-25.9775-16.5425,107.9409,107.9409,0,0,0-195.791,0,28.7212,28.7212,0,0,1-25.9951,16.5425h-.336a98.0909,98.0909,0,0,0-98.0879,98.833c.3985,53.6772,44.917,97.3471,99.2383,97.3471h41.52a6.5,6.5,0,1,0,0-13h-41.52c-47.206,0-85.8926-37.8813-86.2383-84.4438a85.09,85.09,0,0,1,85.0879-85.7363h.3535A41.7586,41.7586,0,0,0,156.2931,90.2386Z"/><path d="M119.256,132.9017a66.4909,66.4909,0,0,0-66.4882,66.9975,6.5,6.5,0,0,0,6.499,6.4522h.0488a6.5009,6.5009,0,0,0,6.4522-6.5479,53.4906,53.4906,0,0,1,53.48-53.9018l.3564,0h.0088a6.5,6.5,0,0,0,.0088-13Z"/><path d="M268.343,305.9373a10.1694,10.1694,0,0,0,2.3134,11.2827l49.1143,48.34a10.3552,10.3552,0,0,0,14.4629,0l49.1133-48.34a10.3346,10.3346,0,0,0-7.2491-17.7H357.8791a3.9707,3.9707,0,0,1-3.9658-3.9663V232.3094a12.1481,12.1481,0,0,0-12.1348-12.1343H312.2248a12.1479,12.1479,0,0,0-12.1338,12.1343v63.2441a3.9709,3.9709,0,0,1-3.9668,3.9663H277.9064A10.1686,10.1686,0,0,0,268.343,305.9373Z"/><path d="M299.5305,200.4832H352.53a6.5,6.5,0,0,0,0-13h-52.999a6.5,6.5,0,0,0,0,13Z"/><path d="M299.5305,175.824H352.53a6.5,6.5,0,0,0,0-13h-52.999a6.5,6.5,0,0,0,0,13Z"/><path d="M437.2785,260.9422H392.0353a6.5,6.5,0,0,0,0,13h45.2432a8.35,8.35,0,0,1,8.3408,8.3408V402.2088H205.5617V282.283a8.35,8.35,0,0,1,8.3408-8.3408h51.2158a6.5,6.5,0,0,0,0-13H213.9025a21.3647,21.3647,0,0,0-21.3408,21.3408V423.3616a21.3647,21.3647,0,0,0,21.3408,21.3408l92.7012.0075a5.5,5.5,0,0,1,0,11H288.67v24.7347H278.4084a6.5,6.5,0,0,0,0,13h94.3633a6.5,6.5,0,0,0,0-13H360.9123V446.6985a1.9984,1.9984,0,0,1,1.9961-1.9961h74.37a21.3647,21.3647,0,0,0,21.3408-21.3408V282.283A21.3647,21.3647,0,0,0,437.2785,260.9422Z"/></g></svg>